# xmcd CD database file generated by GCD 2.96
# 
# Track frame offsets:
#       151
#       11498
#       24903
#       35423
#       46125
#       56848
#       70210
#       81873
#       94575
#       106158
#       116963
#       127270
#       140950
#       153955
#       166055
#       176333
#       187503
#       198595
#       209382
#       219587
#       231347
# 
# Disc length: 3231 seconds
# 
# Revision: 0
# Processed by: cddbd v1.4PL0 Copyright (c) Steve Scherf et al.
# Submitted via: GCD 2.96
# 
DISCID=220c9d15
DTITLE=Robert Johnson - Delta Blues, vol. 2
DYEAR=1900
DGENRE=
TTITLE0=Kind Hearted Woman Blues
TTITLE1=I Believe I'll Dust My Broom
TTITLE2=Malted Milk
TTITLE3=Drunken Hearted Man
TTITLE4=Stop Breakin' Down Blues
TTITLE5=They're Red Hot
TTITLE6=Dead Shrimp Blues
TTITLE7=Preachin' Blues
TTITLE8=I'm a Steady Rollin' Man
TTITLE9=From Four Till Late
TTITLE10=Little Queen of Spades
TTITLE11=Sweet Home Chicago
TTITLE12=Rambling on my Mind
TTITLE13=Phonograph Blues
TTITLE14=Honeymoon Blues
TTITLE15=Love in Vain
TTITLE16=Drunken Hearten Man (alternate take)
TTITLE17=Stop Breakin' Down Blues (alternate take)
TTITLE18=Little Queen of Spades (alternate take)
TTITLE19=Phonograph Blues (alternate take)
TTITLE20=Love in Vain (alternate take)
EXTD=
EXTT0=
EXTT1=
EXTT2=
EXTT3=
EXTT4=
EXTT5=
EXTT6=
EXTT7=
EXTT8=
EXTT9=
EXTT10=
EXTT11=
EXTT12=
EXTT13=
EXTT14=
EXTT15=
EXTT16=
EXTT17=
EXTT18=
EXTT19=
EXTT20=
PLAYORDER=
